REM DIRINDEX 1\2,1\4,1\3\5,1\3\6
REM DIRNAME folder01,folder02,folder03,folder04,folder05,folder06
TITLE ""
FILE "Track53.mp3" MP3
  TRACK 01 AUDIO
    TITLE "4:cjc035_1802"
    INDEX 01 00:00:00
  TRACK 02 AUDIO
    TITLE "5:cjc035_1803"
    INDEX 01 00:04:31
  TRACK 03 AUDIO
    TITLE "6:cjc035_1804"
    INDEX 01 00:05:57
  TRACK 04 AUDIO
    TITLE "5:cjc035_1805"
    INDEX 01 00:07:25
  TRACK 05 AUDIO
    TITLE "6:cjc035_1806"
    INDEX 01 00:08:66
  TRACK 06 AUDIO
    TITLE "5:cjc035_1807"
    INDEX 01 00:10:27
  TRACK 07 AUDIO
    TITLE "6:cjc035_1808"
    INDEX 01 00:12:07
  TRACK 08 AUDIO
    TITLE "5:cjc035_1809"
    INDEX 01 00:13:53
  TRACK 09 AUDIO
    TITLE "6:cjc035_1810"
    INDEX 01 00:15:13
  TRACK 10 AUDIO
    TITLE "5:cjc035_1811"
    INDEX 01 00:16:53
  TRACK 11 AUDIO
    TITLE "6:cjc035_1812"
    INDEX 01 00:18:13
  TRACK 12 AUDIO
    TITLE "5:cjc035_1813"
    INDEX 01 00:19:60
  TRACK 13 AUDIO
    TITLE "6:cjc035_1814"
    INDEX 01 00:21:23
  TRACK 14 AUDIO
    TITLE "5:cjc035_1815"
    INDEX 01 00:22:60
  TRACK 15 AUDIO
    TITLE "6:cjc035_1816"
    INDEX 01 00:24:20
  TRACK 16 AUDIO
    TITLE "5:cjc035_1817"
    INDEX 01 00:25:62
  TRACK 17 AUDIO
    TITLE "6:cjc035_1818"
    INDEX 01 00:27:24
  TRACK 18 AUDIO
    TITLE "5:cjc035_1819"
    INDEX 01 00:28:62
  TRACK 19 AUDIO
    TITLE "6:cjc035_1820"
    INDEX 01 00:30:30
  TRACK 20 AUDIO
    TITLE "5:cjc035_1821"
    INDEX 01 00:32:01
  TRACK 21 AUDIO
    TITLE "6:cjc035_1822"
    INDEX 01 00:33:34
  TRACK 22 AUDIO
    TITLE "5:cjc035_1823"
    INDEX 01 00:35:04
  TRACK 23 AUDIO
    TITLE "6:cjc035_1824"
    INDEX 01 00:36:40
  TRACK 24 AUDIO
    TITLE "5:cjc035_1825"
    INDEX 01 00:38:12
  TRACK 25 AUDIO
    TITLE "6:cjc035_1826"
    INDEX 01 00:39:62
  TRACK 26 AUDIO
    TITLE "5:cjc035_1827"
    INDEX 01 00:41:28
  TRACK 27 AUDIO
    TITLE "6:cjc035_1828"
    INDEX 01 00:42:66
  TRACK 28 AUDIO
    TITLE "5:cjc035_1829"
    INDEX 01 00:44:34
  TRACK 29 AUDIO
    TITLE "6:cjc035_1830"
    INDEX 01 00:46:04
  TRACK 30 AUDIO
    TITLE "5:cjc035_1831"
    INDEX 01 00:47:48
  TRACK 31 AUDIO
    TITLE "6:cjc035_1832"
    INDEX 01 00:49:21
  TRACK 32 AUDIO
    TITLE "5:cjc035_1833"
    INDEX 01 00:50:58
  TRACK 33 AUDIO
    TITLE "6:cjc035_1834"
    INDEX 01 00:52:26
  TRACK 34 AUDIO
    TITLE "5:cjc035_1835"
    INDEX 01 00:53:74
  TRACK 35 AUDIO
    TITLE "6:cjc035_1836"
    INDEX 01 00:55:38
  TRACK 36 AUDIO
    TITLE "5:cjc035_1837"
    INDEX 01 00:57:15
  TRACK 37 AUDIO
    TITLE "6:cjc035_1838"
    INDEX 01 00:58:56
  TRACK 38 AUDIO
    TITLE "5:cjc035_1839"
    INDEX 01 01:00:15
  TRACK 39 AUDIO
    TITLE "6:cjc035_1840"
    INDEX 01 01:01:60
  TRACK 40 AUDIO
    TITLE "5:cjc035_1841"
    INDEX 01 01:03:37
  TRACK 41 AUDIO
    TITLE "6:cjc035_1842"
    INDEX 01 01:05:05
  TRACK 42 AUDIO
    TITLE "5:cjc035_1843"
    INDEX 01 01:06:53
  TRACK 43 AUDIO
    TITLE "6:cjc035_1844"
    INDEX 01 01:08:25
  TRACK 44 AUDIO
    TITLE "5:cjc035_1845"
    INDEX 01 01:09:67
  TRACK 45 AUDIO
    TITLE "6:cjc035_1846"
    INDEX 01 01:11:37
  TRACK 46 AUDIO
    TITLE "6:cjc035_1847"
    INDEX 01 01:13:00
  TRACK 47 AUDIO
    TITLE "5:cjc035_1848"
    INDEX 01 01:14:53
  TRACK 48 AUDIO
    TITLE "6:cjc035_1849"
    INDEX 01 01:16:18
  TRACK 49 AUDIO
    TITLE "6:cjc035_1850"
    INDEX 01 01:17:53
  TRACK 50 AUDIO
    TITLE "5:cjc035_1851"
    INDEX 01 01:19:23
  TRACK 51 AUDIO
    TITLE "6:cjc035_1852"
    INDEX 01 01:20:57
  TRACK 52 AUDIO
    TITLE "6:cjc035_1853"
    INDEX 01 01:22:13
  TRACK 53 AUDIO
    TITLE "5:cjc035_1854"
    INDEX 01 01:23:50
  TRACK 54 AUDIO
    TITLE "6:cjc035_1855"
    INDEX 01 01:25:09
  TRACK 55 AUDIO
    TITLE "5:cjc035_1856"
    INDEX 01 01:26:46
  TRACK 56 AUDIO
    TITLE "6:cjc035_1857"
    INDEX 01 01:28:12
  TRACK 57 AUDIO
    TITLE "5:cjc035_1858"
    INDEX 01 01:29:58
  TRACK 58 AUDIO
    TITLE "6:cjc035_1859"
    INDEX 01 01:31:28
  TRACK 59 AUDIO
    TITLE "5:cjc035_1860"
    INDEX 01 01:33:03
  TRACK 60 AUDIO
    TITLE "6:cjc035_1861"
    INDEX 01 01:34:50
  TRACK 61 AUDIO
    TITLE "5:cjc035_1862"
    INDEX 01 01:36:21
  TRACK 62 AUDIO
    TITLE "6:cjc035_1863"
    INDEX 01 01:37:62
  TRACK 63 AUDIO
    TITLE "5:cjc035_1864"
    INDEX 01 01:39:45
  TRACK 64 AUDIO
    TITLE "6:cjc035_1865"
    INDEX 01 01:41:12
  TRACK 65 AUDIO
    TITLE "5:cjc035_1866"
    INDEX 01 01:42:57
  TRACK 66 AUDIO
    TITLE "6:cjc035_1867"
    INDEX 01 01:44:23
  TRACK 67 AUDIO
    TITLE "5:cjc035_1868"
    INDEX 01 01:45:63
  TRACK 68 AUDIO
    TITLE "6:cjc035_1869"
    INDEX 01 01:47:31
  TRACK 69 AUDIO
    TITLE "5:cjc035_1870"
    INDEX 01 01:49:00
  TRACK 70 AUDIO
    TITLE "6:cjc035_1871"
    INDEX 01 01:50:39
  TRACK 71 AUDIO
    TITLE "5:cjc035_1872"
    INDEX 01 01:52:06
  TRACK 72 AUDIO
    TITLE "6:cjc035_1873"
    INDEX 01 01:53:43
  TRACK 73 AUDIO
    TITLE "5:cjc035_1874"
    INDEX 01 01:55:15
  TRACK 74 AUDIO
    TITLE "6:cjc035_1875"
    INDEX 01 01:56:51
  TRACK 75 AUDIO
    TITLE "5:cjc035_1876"
    INDEX 01 01:58:19
  TRACK 76 AUDIO
    TITLE "6:cjc035_1877"
    INDEX 01 01:59:59
  TRACK 77 AUDIO
    TITLE "5:cjc035_1878"
    INDEX 01 02:01:21
  TRACK 78 AUDIO
    TITLE "6:cjc035_1879"
    INDEX 01 02:02:60
  TRACK 79 AUDIO
    TITLE "5:cjc035_1880"
    INDEX 01 02:04:19
  TRACK 80 AUDIO
    TITLE "6:cjc035_1881"
    INDEX 01 02:05:58
  TRACK 81 AUDIO
    TITLE "5:cjc035_1882"
    INDEX 01 02:07:18
  TRACK 82 AUDIO
    TITLE "6:cjc035_1883"
    INDEX 01 02:08:52
  TRACK 83 AUDIO
    TITLE "5:cjc035_1884"
    INDEX 01 02:10:16
  TRACK 84 AUDIO
    TITLE "6:cjc035_1885"
    INDEX 01 02:11:53
  TRACK 85 AUDIO
    TITLE "5:cjc035_1886"
    INDEX 01 02:13:10
  TRACK 86 AUDIO
    TITLE "6:cjc035_1887"
    INDEX 01 02:14:51
  TRACK 87 AUDIO
    TITLE "5:cjc035_1888"
    INDEX 01 02:16:17
  TRACK 88 AUDIO
    TITLE "6:cjc035_1889"
    INDEX 01 02:17:55
  TRACK 89 AUDIO
    TITLE "5:cjc035_1890"
    INDEX 01 02:19:19
  TRACK 90 AUDIO
    TITLE "6:cjc035_1891"
    INDEX 01 02:20:52
  TRACK 91 AUDIO
    TITLE "0:"
    INDEX 01 02:22:39
